<mxfile host="65bd71144e">
    <diagram id="792wzidZ6no8Rg3Axo7v" name="ページ1">
        <mxGraphModel dx="678" dy="681" grid="1" gridSize="10" guides="1" tooltips="1" connect="1" arrows="1" fold="1" page="1" pageScale="1" pageWidth="827" pageHeight="1169" math="0" shadow="0">
            <root>
                <mxCell id="0"/>
                <mxCell id="1" parent="0"/>
                <mxCell id="3" value="リバーシアプリケーション" style="whiteSpace=wrap;html=1;aspect=fixed;glass=0;verticalAlign=top;horizontal=1;fillColor=none;strokeWidth=1;" vertex="1" parent="1">
                    <mxGeometry x="250" y="60" width="440" height="440" as="geometry"/>
                </mxCell>
                <mxCell id="21" style="edgeStyle=none;html=1;entryX=0.083;entryY=0.748;entryDx=0;entryDy=0;entryPerimeter=0;strokeColor=default;startArrow=none;startFill=0;endArrow=none;endFill=0;" edge="1" parent="1" source="4" target="15">
                    <mxGeometry relative="1" as="geometry"/>
                </mxCell>
                <mxCell id="22" style="edgeStyle=none;html=1;strokeColor=default;startArrow=none;startFill=0;endArrow=none;endFill=0;" edge="1" parent="1" source="4" target="16">
                    <mxGeometry relative="1" as="geometry"/>
                </mxCell>
                <mxCell id="24" style="edgeStyle=none;html=1;entryX=0.069;entryY=0.222;entryDx=0;entryDy=0;entryPerimeter=0;strokeColor=default;startArrow=none;startFill=0;endArrow=none;endFill=0;" edge="1" parent="1" source="4" target="20">
                    <mxGeometry relative="1" as="geometry"/>
                </mxCell>
                <mxCell id="4" value="プレイヤー" style="shape=umlActor;verticalLabelPosition=bottom;verticalAlign=top;html=1;outlineConnect=0;glass=0;fillColor=none;" vertex="1" parent="1">
                    <mxGeometry x="130" y="225" width="20" height="45" as="geometry"/>
                </mxCell>
                <mxCell id="10" style="edgeStyle=none;html=1;startArrow=none;startFill=0;endArrow=none;endFill=0;" edge="1" parent="1" source="9" target="4">
                    <mxGeometry relative="1" as="geometry"/>
                </mxCell>
                <mxCell id="13" style="edgeStyle=none;html=1;startArrow=none;startFill=0;endArrow=none;endFill=0;dashed=1;strokeColor=default;" edge="1" parent="1" source="9" target="12">
                    <mxGeometry relative="1" as="geometry"/>
                </mxCell>
                <mxCell id="9" value="対戦する" style="ellipse;whiteSpace=wrap;html=1;glass=0;fillColor=none;" vertex="1" parent="1">
                    <mxGeometry x="314" y="200" width="100" height="50" as="geometry"/>
                </mxCell>
                <mxCell id="12" value="&lt;ul&gt;&lt;li&gt;対戦を開始する&lt;/li&gt;&lt;li&gt;盤面を見る&lt;/li&gt;&lt;li&gt;石を打つ&lt;/li&gt;&lt;li&gt;勝敗を確認する&lt;/li&gt;&lt;/ul&gt;" style="shape=note;whiteSpace=wrap;html=1;backgroundOutline=1;darkOpacity=0.05;glass=0;fillColor=#ffe6cc;strokeColor=#d79b00;align=left;" vertex="1" parent="1">
                    <mxGeometry x="430" y="90" width="170" height="90" as="geometry"/>
                </mxCell>
                <mxCell id="15" value="会員登録・ログイン" style="ellipse;whiteSpace=wrap;html=1;glass=0;fillColor=none;" vertex="1" parent="1">
                    <mxGeometry x="260" y="120" width="126" height="50" as="geometry"/>
                </mxCell>
                <mxCell id="16" value="自分の過去の対戦結果を確認する" style="ellipse;whiteSpace=wrap;html=1;glass=0;fillColor=none;" vertex="1" parent="1">
                    <mxGeometry x="273" y="290" width="114" height="60" as="geometry"/>
                </mxCell>
                <mxCell id="17" value="一人で黒白交互に打つ" style="ellipse;whiteSpace=wrap;html=1;glass=0;fillColor=none;" vertex="1" parent="1">
                    <mxGeometry x="500" y="210" width="100" height="50" as="geometry"/>
                </mxCell>
                <mxCell id="18" value="コンピュータと対戦する" style="ellipse;whiteSpace=wrap;html=1;glass=0;fillColor=none;" vertex="1" parent="1">
                    <mxGeometry x="540" y="380" width="100" height="50" as="geometry"/>
                </mxCell>
                <mxCell id="19" value="他のプレイヤーと対戦する" style="ellipse;whiteSpace=wrap;html=1;glass=0;fillColor=none;" vertex="1" parent="1">
                    <mxGeometry x="540" y="450" width="100" height="50" as="geometry"/>
                </mxCell>
                <mxCell id="20" value="プレイヤーのランキングを確認する" style="ellipse;whiteSpace=wrap;html=1;glass=0;fillColor=none;" vertex="1" parent="1">
                    <mxGeometry x="273" y="380" width="100" height="50" as="geometry"/>
                </mxCell>
                <mxCell id="26" value="Extends" style="endArrow=block;endSize=16;endFill=0;html=1;strokeColor=default;" edge="1" parent="1" source="17" target="9">
                    <mxGeometry x="-0.25" y="10" width="160" relative="1" as="geometry">
                        <mxPoint x="380" y="280" as="sourcePoint"/>
                        <mxPoint x="540" y="280" as="targetPoint"/>
                        <Array as="points"/>
                        <mxPoint as="offset"/>
                    </mxGeometry>
                </mxCell>
                <mxCell id="29" value="Extends" style="endArrow=block;endSize=16;endFill=0;html=1;strokeColor=default;exitX=-0.022;exitY=0.285;exitDx=0;exitDy=0;exitPerimeter=0;entryX=0.785;entryY=0.896;entryDx=0;entryDy=0;entryPerimeter=0;" edge="1" parent="1" source="18" target="9">
                    <mxGeometry x="-0.25" y="10" width="160" relative="1" as="geometry">
                        <mxPoint x="510.29187764275684" y="242.3026600271263" as="sourcePoint"/>
                        <mxPoint x="423.74054086708975" y="237.54355038524886" as="targetPoint"/>
                        <Array as="points"/>
                        <mxPoint as="offset"/>
                    </mxGeometry>
                </mxCell>
                <mxCell id="30" value="Extends" style="endArrow=block;endSize=16;endFill=0;html=1;strokeColor=default;entryX=0.5;entryY=1;entryDx=0;entryDy=0;exitX=0;exitY=0.5;exitDx=0;exitDy=0;" edge="1" parent="1" source="19" target="9">
                    <mxGeometry x="-0.25" y="10" width="160" relative="1" as="geometry">
                        <mxPoint x="520.2918776427568" y="252.3026600271263" as="sourcePoint"/>
                        <mxPoint x="433.74054086708975" y="247.54355038524886" as="targetPoint"/>
                        <Array as="points"/>
                        <mxPoint as="offset"/>
                    </mxGeometry>
                </mxCell>
                <mxCell id="31" value="" style="rounded=0;whiteSpace=wrap;html=1;glass=0;strokeWidth=3;fillColor=none;strokeColor=#FF0000;" vertex="1" parent="1">
                    <mxGeometry x="253" y="190" width="367" height="170" as="geometry"/>
                </mxCell>
            </root>
        </mxGraphModel>
    </diagram>
</mxfile>
